<?xml version="1.0" encoding="utf-8"?>
<!-- Generator: Adobe Illustrator 23.1.0, SVG Export Plug-In . SVG Version: 6.00 Build 0)  -->
<svg version="1.1" id="Layer_1" xmlns="http://www.w3.org/2000/svg" xmlns:xlink="http://www.w3.org/1999/xlink" x="0px" y="0px"
	 viewBox="0 0 723 175" style="enable-background:new 0 0 723 175;" xml:space="preserve">
<style type="text/css">
	.st0{fill:#04854C;}
	.st1{fill:#FFFFFF;}
</style>
<g>
	<g>
		<g>
			<path class="st0" d="M175.24,45.94v17.21c0,9.32,2.11,14.65,8.77,21.76c4.44,4.77,8.99,9.21,12.77,12.65
				c2.11,1.89,1.44,5-0.33,6.88c-1.67,1.78-4.77,2.44-6.77,0.56c-3.44-3.11-7.22-6.88-11.43-11.32c-6.44-6.77-7.99-9.44-8.55-11.77
				h-0.11c-0.56,2.55-2.11,5.22-8.55,11.99c-4.22,4.44-8.1,8.33-12.88,12.65c-2.22,2.11-5.33,1-6.99-0.89c-1.78-2-2-4.88,0.11-6.88
				c4.88-4.55,9.55-9.1,13.99-13.88c6.55-7.1,8.77-12.43,8.77-21.76V45.94c0-3.22,2.66-4.66,5.55-4.66
				C172.58,41.27,175.24,42.72,175.24,45.94z M222.42,40.72v86.59c0,3.22-2.66,4.66-5.55,4.66c-2.77,0-5.44-1.44-5.44-4.66V75.35
				h-16.87c-2.78,0-4-2.11-4-4.66c0-2.66,1.22-4.77,4-4.77h16.87v-25.2c0-3.22,2.66-4.66,5.44-4.66
				C219.75,36.06,222.42,37.5,222.42,40.72z"/>
			<path class="st0" d="M317.44,105.77v8.21c0,6.33-2.11,8.33-8.55,8.33h-46.96c-1.22,0-1.78,0.44-1.78,1.67v4.55
				c0,1.11,0.56,1.67,1.78,1.67h54.28c2.44,0,3.66,2.11,3.66,4.33c0,2.33-1.22,4.33-3.66,4.33h-58.28c-6.44,0-8.55-2-8.55-8.33
				v-8.21c0-6.33,2.11-8.33,8.55-8.33h46.96c1.22,0,1.78-0.56,1.78-1.67v-4.44c0-1.22-0.55-1.78-1.78-1.78h-52.17
				c-2.44,0-3.55-2-3.55-4.33c0-2.22,1.11-4.33,3.55-4.33h25.31v-9.1h-37.41c-2.55,0-3.77-2-3.77-4.55c0-2.44,1.22-4.44,3.77-4.44
				h85.7c2.55,0,3.77,2,3.77,4.44c0,2.55-1.22,4.55-3.77,4.55h-37.41v9.1h19.98C315.33,97.44,317.44,99.44,317.44,105.77z
				 M317.21,54.93c0,12.43-12.43,17.87-33.75,17.87s-33.75-5.44-33.75-17.87c0-12.32,12.43-17.76,33.75-17.76
				S317.21,42.61,317.21,54.93z M260.71,54.93c0,5.77,6.88,9.1,22.76,9.1c15.87,0,22.76-3.33,22.76-9.1s-6.88-8.99-22.76-8.99
				C267.59,45.94,260.71,49.15,260.71,54.93z"/>
			<path class="st0" d="M391.36,73.8c0,8.1-6.55,13.43-17.87,14.65v8.66c7.33-0.33,14.76-0.78,22.31-1.44
				c2.55-0.22,3.89,1.44,4.11,3.89c0.22,2.44-0.89,4.66-3.33,4.88c-16.98,1.44-36.74,2-57.28,2c-2.66,0-3.89-2-3.89-4.44
				c0-2.44,1.22-4.44,3.89-4.44c7.77,0,15.54,0,23.42-0.11v-8.99c-11.43-1.22-17.98-6.44-17.98-14.65c0-9.32,8.66-14.88,23.31-14.88
				C382.7,58.92,391.36,64.47,391.36,73.8z M373.6,38.94v5.88h19.76c2.55,0,3.66,2,3.66,4.44c0,2.44-1.11,4.44-3.66,4.44h-51.62
				c-2.55,0-3.66-2-3.66-4.44c0-2.44,1.11-4.44,3.66-4.44h20.76v-5.88c0-3.11,2.55-4.55,5.55-4.55
				C370.94,34.39,373.6,35.83,373.6,38.94z M361.39,115.98v9.88c0,1.78,0.56,2.33,2.33,2.33h51.73c2.55,0,3.66,2.11,3.66,4.55
				s-1.11,4.55-3.66,4.55h-56.5c-6.44,0-8.55-2-8.55-8.33v-12.99c0-3.22,2.66-4.66,5.44-4.66
				C358.61,111.32,361.39,112.76,361.39,115.98z M354.84,73.8c0,4,4.22,6.77,13.21,6.77c8.99,0,13.21-2.77,13.21-6.77
				c0-4.11-4.22-6.77-13.21-6.77C359.06,67.03,354.84,69.69,354.84,73.8z M416.45,40.61v28.53h10.77c2.89,0,4.11,2.11,4.11,4.77
				s-1.22,4.88-4.11,4.88h-10.77v31.08c0,3.11-2.66,4.55-5.55,4.55c-2.78,0-5.44-1.44-5.44-4.55V40.61c0-3.11,2.66-4.55,5.44-4.55
				C413.78,36.06,416.45,37.5,416.45,40.61z"/>
			<path class="st0" d="M473.83,41.72c6.44,0,8.55,2,8.55,8.33v8.44c0,16.54-5.44,20.31-38.85,36.08c-2.66,1.22-5.33-0.22-6.55-2.55
				c-1-2.22-1-5.33,1.89-6.66c30.64-14.21,32.41-16.43,32.41-27.31V53.6c0-1.67-0.56-2.33-2.33-2.33h-27.64
				c-2.66,0-3.89-2.11-3.89-4.66c0-2.66,1.22-4.88,3.89-4.88H473.83z M517.13,118.87c0,13.88-11.99,20.98-32.53,20.98
				c-20.54,0-32.52-7.1-32.52-20.98s11.99-20.98,32.52-20.98C505.14,97.89,517.13,104.99,517.13,118.87z M463.07,118.87
				c0,7.33,6.44,11.99,21.54,11.99c14.99,0,21.54-4.66,21.54-11.99s-6.55-11.99-21.54-11.99
				C469.5,106.88,463.07,111.54,463.07,118.87z M516.57,40.72v51.62c0,3.11-2.66,4.55-5.44,4.55c-2.77,0-5.55-1.44-5.55-4.55V81.79
				h-15.43c-2.66,0-3.77-2.22-3.77-4.77c0-2.55,1.11-4.77,3.77-4.77h15.43v-11.1h-14.54c-2.66,0-3.77-2.22-3.77-4.77
				c0-2.55,1.11-4.77,3.77-4.77h14.54V40.72c0-3.22,2.78-4.66,5.55-4.66C513.91,36.06,516.57,37.5,516.57,40.72z"/>
			<path class="st0" d="M582.39,66.81c0,14.65-8.33,25.86-25.2,25.86S532,81.46,532,66.81c0-14.54,8.33-25.75,25.2-25.75
				S582.39,52.26,582.39,66.81z M542.65,66.81c0,8.88,4,16.43,14.54,16.43s14.54-7.55,14.54-16.43c0-8.88-4-16.32-14.54-16.32
				S542.65,57.92,542.65,66.81z M559.08,106.43v18.76c0,1.67,0.56,2.22,2.33,2.22h50.4c2.78,0,4,2.22,4,4.88
				c0,2.55-1.22,4.77-4,4.77h-55.39c-6.44,0-8.55-2-8.55-8.33v-22.31c0-3.22,2.66-4.66,5.66-4.66
				C556.31,101.77,559.08,103.22,559.08,106.43z M613.14,40.72v65.72c0,3.22-2.66,4.66-5.44,4.66c-2.77,0-5.55-1.44-5.55-4.66V82.9
				h-12.88c-2.66,0-3.77-2.22-3.77-4.77s1.11-4.77,3.77-4.77h12.88V60.81h-12.88c-2.66,0-3.77-2.11-3.77-4.77
				c0-2.55,1.11-4.66,3.77-4.66h12.88V40.72c0-3.22,2.78-4.66,5.55-4.66C610.48,36.06,613.14,37.5,613.14,40.72z"/>
			<path class="st0" d="M663.2,38.5v6.77h19.87c2.66,0,3.89,2.11,3.89,4.66c0,2.55-1.22,4.66-3.89,4.66h-51.95
				c-2.66,0-3.89-2.11-3.89-4.66c0-2.55,1.22-4.66,3.89-4.66h20.98V38.5c0-3.22,2.78-4.66,5.55-4.66
				C660.54,33.84,663.2,35.28,663.2,38.5z M681.3,77.35c0,10.66-8.88,17.32-23.64,17.32s-23.64-6.66-23.64-17.32
				c0-10.55,8.88-17.21,23.64-17.21S681.3,66.81,681.3,77.35z M653.43,104.22v7.44h42.29v-7.44c0-3,2.78-4.33,5.33-4.33
				c2.77,0,5.44,1.33,5.44,4.33v25.31c0,6.33-2.11,8.33-8.55,8.33h-46.62c-6.44,0-8.55-2-8.55-8.33v-25.31c0-3,2.66-4.33,5.33-4.33
				C650.77,99.89,653.43,101.22,653.43,104.22z M644,77.35c0,5.22,4.77,8.66,13.65,8.66c8.99,0,13.65-3.44,13.65-8.66
				c0-5.11-4.66-8.66-13.65-8.66C648.77,68.69,644,72.24,644,77.35z M655.21,128.97h38.85c1.11,0,1.67-0.55,1.67-1.67v-6.88h-42.29
				v6.88C653.43,128.41,653.99,128.97,655.21,128.97z M706.5,40.72v20.54h12.32c2.77,0,4,2.22,4,4.77c0,2.66-1.22,4.88-4,4.88H706.5
				v19.54c0,3.11-2.66,4.55-5.55,4.55c-2.77,0-5.44-1.44-5.44-4.55V40.72c0-3.22,2.66-4.66,5.44-4.66
				C703.83,36.06,706.5,37.5,706.5,40.72z"/>
		</g>
	</g>
	<path class="st0" d="M52.97,81.77c0.45,0.55,1.26,0.65,1.81,0.19c3.77-3.13,16.68-16.8,21.62-20.18c5.8-3.96,14.85-7.21,17.96,4.52
		c1.89,7.15,2.74,17.24,3.11,19.81c0.14,0.95,1.28,1.37,1.99,0.72c3.12-2.82,9.64-7.29,12.29,1.71c0.61,2.08,1.18,3.95,1.69,5.63
		c0.3,0.99,1.76,0.76,1.76-0.27V48.92c0-12.25-9.93-22.18-22.18-22.18H22.36c-12.25,0-22.17,9.93-22.17,22.17l0,40.79
		c0,9.53,11.24,14.6,18.39,8.3c8.65-7.64,17.39-15.35,20.35-17.99C45,74.61,49.24,77.16,52.97,81.77z"/>
	<path class="st0" d="M16.89,116.75c8.05,0,8.05-8.48,16.1-8.48c8.05,0,8.05,8.48,16.1,8.48c8.05,0,8.05-8.48,16.1-8.48
		c8.05,0,8.05,8.48,16.1,8.48c8.05,0,8.05-8.48,16.1-8.48c8.05,0,8.05,8.48,16.1,8.48c0.01,0,0.01,0,0.02,0
		c0.91,0,1.66,0.7,1.66,1.61v7.72c0,12.25-9.93,22.18-22.18,22.18H22.36c-12.25,0-22.17-9.93-22.17-22.17v-15.83
		c0-1.11,0.18-1.98,1.24-1.97C8.86,108.42,9.06,116.75,16.89,116.75z"/>
	<circle class="st1" cx="28.75" cy="57.66" r="10.39"/>
</g>
</svg>
